<?xml version="1.0" encoding="utf-8"?>
<!-- Generator: Adobe Illustrator 26.1.0, SVG Export Plug-In . SVG Version: 6.00 Build 0)  -->
<svg version="1.1" id="Layer_1" xmlns="http://www.w3.org/2000/svg" xmlns:xlink="http://www.w3.org/1999/xlink" x="0px" y="0px"
	 viewBox="0 0 187 53" style="enable-background:new 0 0 187 53;" xml:space="preserve">
<style type="text/css">
	.st0{fill:#F5F5F5;}
	.st1{fill:#FFFFFF;}
</style>
<rect x="2" class="st0" width="187" height="53"/>
<rect x="-1" class="st1" width="178" height="53"/>
<path d="M172,37.5c-0.5,0-1-0.5-1-1v-3.2c0-1.8-0.7-3.5-2-4.8c-0.5-0.5-1.2-1-1.9-1.3c-0.3-0.2-0.5-0.5-0.6-0.8s0.1-0.7,0.4-0.9
	c1.5-1,2.3-2.6,2.3-4.3c0-2.9-2.3-5.2-5.2-5.2c-2.9,0-5.2,2.3-5.2,5.2c0,1.8,0.9,3.4,2.3,4.3c0.3,0.2,0.5,0.5,0.5,0.9
	c0,0.4-0.2,0.7-0.6,0.8c-2.3,1.1-3.8,3.5-3.8,6.1v3.2c0,0.6-0.4,1-1,1s-1-0.4-1-1v-3.2c0-2.9,1.4-5.5,3.7-7.1
	c-1.3-1.3-2.1-3.1-2.1-5c0-4,3.2-7.2,7.2-7.2s7.2,3.2,7.2,7.2c0,1.9-0.8,3.7-2.1,5c0.4,0.3,0.8,0.6,1.1,0.9c1.7,1.7,2.6,3.9,2.6,6.2
	v3.2C173,37.1,172.6,37.5,172,37.5z"/>
<path d="M66.9,35.4c-5.9,0-10.7-4.8-10.7-10.7S61,14,66.9,14c5.9,0,10.7,4.8,10.7,10.7S72.8,35.4,66.9,35.4z M66.9,16
	c-4.8,0-8.7,3.9-8.7,8.7s3.9,8.7,8.7,8.7s8.7-3.9,8.7-8.7S71.7,16,66.9,16z"/>
<path d="M78.7,37.5c-0.3,0-0.5-0.1-0.7-0.3l-5-5c-0.4-0.4-0.4-1,0-1.4c0.4-0.4,1-0.4,1.4,0l5,5c0.4,0.4,0.4,1,0,1.4
	C79.3,37.4,79,37.5,78.7,37.5z"/>
<path d="M27.1,37.5H10.7c-0.5,0-0.9-0.3-1-0.8L7,24.4c-0.1-0.3,0-0.6,0.2-0.8c0.2-0.2,0.5-0.4,0.8-0.4h21.8c0.3,0,0.6,0.1,0.8,0.4
	c0.2,0.2,0.3,0.5,0.2,0.8l-2.7,12.4C28,37.2,27.6,37.5,27.1,37.5z M11.5,35.5h14.8l2.3-10.4H9.2L11.5,35.5z"/>
<path d="M10.9,25.1c-0.2,0-0.4-0.1-0.6-0.2C9.8,24.7,9.7,24,10,23.6l6.1-9.1c0.3-0.5,0.9-0.6,1.4-0.3c0.5,0.3,0.6,0.9,0.3,1.4
	l-6.1,9.1C11.5,25,11.2,25.1,10.9,25.1z"/>
<path d="M27,25c-0.2,0-0.5-0.1-0.7-0.2L19,18.3c-0.4-0.4-0.5-1-0.1-1.4c0.4-0.4,1-0.5,1.4-0.1l7.3,6.4c0.4,0.4,0.5,1,0.1,1.4
	C27.5,24.8,27.2,25,27,25z"/>
<path d="M15.8,34c-0.5,0-0.9-0.3-1-0.8l-1.1-4.8c-0.1-0.5,0.2-1.1,0.8-1.2c0.5-0.1,1.1,0.2,1.2,0.8l1.1,4.8c0.1,0.5-0.2,1.1-0.8,1.2
	C15.9,34,15.9,34,15.8,34z"/>
<path d="M22,34c-0.1,0-0.1,0-0.2,0c-0.5-0.1-0.9-0.6-0.8-1.2l1.1-4.8c0.1-0.5,0.7-0.9,1.2-0.8c0.5,0.1,0.9,0.6,0.8,1.2l-1,4.8
	C22.9,33.7,22.5,34,22,34z"/>
<path d="M118.1,37.5c-0.3,0-0.5-0.1-0.7-0.3l-9.8-9.8c-3-3.1-3-8.1,0.1-11.1c1.5-1.5,3.5-2.3,5.6-2.3c1.8,0,3.5,0.6,4.8,1.6
	c3.1-2.4,7.6-2.2,10.4,0.7c1.5,1.5,2.3,3.5,2.3,5.6c0,2.1-0.8,4-2.3,5.5l-9.8,9.8C118.6,37.4,118.4,37.5,118.1,37.5z M113.3,16
	c-1.6,0-3.1,0.6-4.2,1.7c-2.3,2.3-2.3,6,0,8.3l9.1,9l9.1-9c1.1-1.1,1.7-2.6,1.7-4.1c0-1.6-0.6-3.1-1.7-4.2c-2.3-2.3-6-2.3-8.3,0
	c-0.4,0.4-1,0.4-1.4,0C116.3,16.6,114.8,16,113.3,16z"/>
</svg>
